<?xml version="1.0" encoding="UTF-8" standalone="no"?>
<svg width="540px" height="180px" viewBox="0 0 540 180" version="1.1" xmlns="http://www.w3.org/2000/svg" xmlns:xlink="http://www.w3.org/1999/xlink" xmlns:sketch="http://www.bohemiancoding.com/sketch/ns">
    <!-- Generator: Sketch 3.0.1 (7597) - http://www.bohemiancoding.com/sketch -->
    <title>logo (SVG target)</title>
    <description>Created with Sketch.</description>
    <defs></defs>
    <g id="Page-1" stroke="none" stroke-width="1" fill="none" fill-rule="evenodd" sketch:type="MSPage">
        <g id="logo-(SVG-target)" sketch:type="MSArtboardGroup">
            <path d="M502,149.594595 L516.711864,149.594595 L516.711864,30.4054054 L502,30.4054054 L502,20 L530,20 L530,160 L502,160 L502,149.594595 Z" id="]" fill="#FFEC01" sketch:type="MSShapeGroup"></path>
            <path d="M38,30.4054054 L23.2881356,30.4054054 L23.2881356,149.594595 L38,149.594595 L38,160 L10,160 L10,20 L38,20 L38,30.4054054 Z" id="[" fill="#FFEC01" sketch:type="MSShapeGroup"></path>
            <g id="NS-+-Belfast-2" sketch:type="MSLayerGroup" transform="translate(59.000000, 58.000000)" fill="#FFFFFF">
                <path d="M46.16,1.235 L41.57,1.235 L41.57,58.115 L40.67,58.115 L8.18,3.395 C7.28,1.685 6.56,1.235 4.58,1.235 L-0.46,1.235 L-0.46,64.235 L4.04,64.235 L4.04,6.815 L5.03,6.815 L37.79,62.165 C38.6,63.785 39.41,64.325 41.3,64.325 L46.16,64.325 L46.16,1.235 Z M109.25,47.585 C109.25,39.395 108.44,36.335 106.37,34.175 C104.66,32.555 102.14,31.565 97.01,31.115 L77.39,29.315 C73.16,28.865 71.81,28.505 70.64,27.335 C69.2,25.895 68.66,24.275 68.66,17.705 C68.66,11.765 69.2,8.705 70.82,7.085 C72.08,5.825 73.61,5.285 76.85,5.285 L95.57,5.285 C98.63,5.285 100.16,5.735 101.42,6.995 C102.86,8.435 103.4,10.505 103.49,19.055 L108.08,19.055 C107.99,8.795 107.27,6.275 104.84,3.755 C102.95,1.955 100.43,1.235 96.02,1.235 L76.31,1.235 C71.72,1.235 69.29,2.225 67.58,3.935 C64.97,6.545 63.98,10.415 63.98,17.795 C63.98,25.805 64.88,28.595 66.86,30.575 C68.48,32.195 71.09,33.185 76.22,33.635 L95.84,35.435 C100.07,35.885 101.42,36.335 102.59,37.505 C104.21,39.035 104.57,40.745 104.57,47.585 C104.57,54.245 103.94,56.945 102.5,58.385 C101.15,59.645 99.62,60.185 96.38,60.185 L75.59,60.185 C72.53,60.185 71,59.735 69.74,58.475 C68.39,57.125 67.76,55.595 67.67,45.875 L63.08,45.875 C63.08,57.305 64.07,59.375 66.32,61.715 C68.21,63.515 70.73,64.235 75.14,64.235 L96.83,64.235 C101.51,64.235 103.94,63.245 105.65,61.535 C108.17,59.015 109.25,55.685 109.25,47.585 L109.25,47.585 Z" id="NS" sketch:type="MSShapeGroup"></path>
                <path d="M126.38,65 L159.41,65 C163.82,65 167.51,64.1 169.49,62.21 C172.1,59.78 173.63,56.9 173.63,46.55 C173.63,36.92 170.93,33.59 163.73,32.42 L163.73,32.24 C169.85,30.71 173,28.1 173,19.37 C173,10.19 171.83,7.04 169.13,4.61 C167.06,2.72 163.82,2 159.23,2 L126.38,2 L126.38,65 Z M136.46,28.1 L136.46,10.64 L157.16,10.64 C160.04,10.64 161.03,10.82 161.57,11.36 C162.47,12.17 162.92,13.52 162.92,19.28 C162.92,25.13 162.38,26.57 161.48,27.38 C160.85,27.92 159.95,28.1 157.16,28.1 L136.46,28.1 Z M163.55,46.64 C163.55,53.48 162.83,54.92 162.11,55.64 C161.48,56.27 160.49,56.36 157.7,56.36 L136.46,56.36 L136.46,36.56 L157.7,36.56 C160.67,36.56 161.39,36.74 161.93,37.28 C162.74,38.09 163.55,39.53 163.55,46.64 Z M224.03,43.76 C224.84,43.76 225.11,43.4 225.11,42.68 L225.11,40.25 C225.11,26.03 224.21,22.25 221.06,19.1 C219.26,17.3 216.2,16.4 211.43,16.4 L198.11,16.4 C193.34,16.4 190.46,17.21 188.48,19.19 C185.33,22.34 184.43,26.12 184.43,40.7 C184.43,55.28 185.33,59.06 188.48,62.21 C190.46,64.19 193.34,65 198.11,65 L213.86,65 C218.18,65 220.25,64.1 221.78,62.57 C224.21,60.14 224.93,57.44 225.11,49.88 L216.02,49.88 C215.84,54.2 215.66,55.28 215.03,55.91 C214.49,56.45 213.86,56.81 211.79,56.81 L199.19,56.81 C196.4,56.81 195.77,56.63 195.05,55.91 C194.33,55.19 193.79,53.3 193.7,43.76 L224.03,43.76 Z M194.96,25.58 C195.68,24.86 196.4,24.59 199.19,24.59 L210.35,24.59 C213.14,24.59 213.95,24.95 214.49,25.49 C215.3,26.3 215.84,28.1 215.84,36.29 L193.7,36.29 C193.79,28.01 194.15,26.39 194.96,25.58 Z M246.62,65 L246.62,0.2 L237.26,0.2 L237.26,65 L246.62,65 Z M273.8,65 L273.8,24.59 L284.6,24.59 L284.6,16.4 L273.71,16.4 L273.71,13.79 C273.71,10.73 273.98,9.38 274.43,8.93 C274.97,8.39 275.6,8.21 277.22,8.21 L283.79,8.21 L283.79,0.2 L275.15,0.2 C270.65,0.2 268.76,1.19 266.96,2.99 C265.16,4.79 264.35,7.76 264.35,13.88 L264.35,16.4 L256.34,16.4 L256.34,24.59 L264.35,24.59 L264.35,65 L273.8,65 Z M293.42,31.16 L302.51,31.16 C302.69,27.47 302.87,25.85 303.59,25.13 C304.22,24.5 305.21,24.32 307.46,24.32 L317.18,24.32 C319.79,24.32 320.78,24.5 321.41,25.13 C322.13,25.85 322.49,27.29 322.49,32.96 L322.49,38.36 C319.61,37.46 315.29,37.01 310.52,37.01 C298.73,37.01 296.57,38.36 294.41,40.52 C292.52,42.41 291.44,46.19 291.44,51.95 C291.44,58.07 292.61,60.86 294.32,62.57 C296.3,64.55 298.64,65.09 303.05,65.09 L310.61,65.09 C314.93,65.09 316.64,63.92 322.49,59.06 L322.49,65 L331.76,65 L331.76,32.24 C331.76,23.6 331.22,21.26 328.97,19.01 C327.35,17.39 325.01,16.4 319.52,16.4 L304.58,16.4 C300.26,16.4 298.28,17.21 296.39,19.1 C294.5,20.99 293.51,23.78 293.42,31.16 Z M312.23,57.08 L305.3,57.08 C303.14,57.08 302.15,56.99 301.52,56.36 C300.8,55.64 300.62,54.02 300.62,50.42 C300.62,47.27 300.89,46.19 301.79,45.29 C302.6,44.48 303.77,44.03 309.89,44.03 L322.49,44.03 L322.49,54.11 C317.99,56.54 315.83,57.08 312.23,57.08 Z M382.88,50.87 C382.88,44.48 382.43,41.33 380.63,39.53 C379.28,38.18 377.39,37.55 373.61,37.19 L356.87,35.48 C354.71,35.21 354.17,35.03 353.54,34.4 C352.91,33.77 352.82,32.69 352.82,29.63 C352.82,26.48 353.09,25.49 353.72,24.86 C354.17,24.41 354.98,24.23 356.69,24.23 L369.56,24.23 C371.36,24.23 372.08,24.5 372.53,24.95 C372.98,25.4 373.34,26.3 373.52,31.34 L382.16,31.34 C381.98,22.97 381.26,20.45 379.28,18.47 C377.84,17.03 375.68,16.4 371.99,16.4 L354.26,16.4 C350.48,16.4 348.5,17.12 346.97,18.65 C344.99,20.63 344,24.05 344,30.17 C344,36.65 344.54,39.35 346.52,41.33 C347.96,42.77 349.85,43.31 353.72,43.76 L370.19,45.47 C372.17,45.65 372.71,45.92 373.25,46.46 C373.88,47.09 374.15,48.17 374.15,51.41 C374.15,55.01 373.88,55.91 373.34,56.45 C372.89,56.9 372.08,57.17 370.19,57.17 L355.97,57.17 C353.9,57.17 353.36,56.99 352.91,56.54 C352.37,56 352.19,54.83 352.01,49.7 L343.37,49.7 C343.55,58.52 344.18,60.86 346.25,62.93 C347.69,64.37 350.66,65 353.99,65 L372.71,65 C376.31,65 378.47,64.37 380,62.84 C382.07,60.77 382.88,57.62 382.88,50.87 L382.88,50.87 Z M419.06,56.72 L411.68,56.72 C409.43,56.72 408.53,56.63 408.17,56.27 C407.72,55.82 407.54,55.19 407.54,52.94 L407.54,24.59 L419.15,24.59 L419.15,16.4 L407.54,16.4 L407.54,4.34 L398.09,4.34 L398.09,16.4 L389.63,16.4 L389.63,24.59 L398.09,24.59 L398.09,55.55 C398.09,59.42 398.54,61.49 400.16,63.11 C401.87,64.82 404.12,65.36 407.45,65.36 C409.79,65.36 412.22,65 413.57,64.64 L419.06,63.02 L419.06,56.72 Z" id="Belfast" sketch:type="MSShapeGroup"></path>
            </g>
        </g>
    </g>
</svg>