<?xml version="1.0" encoding="UTF-8" standalone="no"?>
<svg width="712px" height="205px" viewBox="0 0 712 205" version="1.1" xmlns="http://www.w3.org/2000/svg" xmlns:xlink="http://www.w3.org/1999/xlink" xmlns:sketch="http://www.bohemiancoding.com/sketch/ns">
    <!-- Generator: Sketch 3.0.2 (7799) - http://www.bohemiancoding.com/sketch -->
    <title>logo</title>
    <description>Created with Sketch.</description>
    <defs>
        <path id="path-1" d="M0,0 L1000,0 L1000,700 L0,700 L0,0 Z"></path>
    </defs>
    <g id="Page-1" stroke="none" stroke-width="1" fill="none" fill-rule="evenodd" sketch:type="MSPage">
        <g id="logo" sketch:type="MSArtboardGroup">
            <g id="Group-46" sketch:type="MSLayerGroup" transform="translate(-147.000000, -246.000000)">
                <path d="M245.3828,393.0859 C245.3828,398.5239 240.9708,402.9339 235.5338,402.9339 C230.0938,402.9339 225.6878,398.5239 225.6878,393.0859 C225.6878,387.6459 230.0938,383.2369 235.5338,383.2369 C240.9708,383.2369 245.3828,387.6459 245.3828,393.0859" id="Fill-2" fill="#68AEF6" sketch:type="MSShapeGroup"></path>
                <path d="M380.1348,388.6973 L346.6328,335.8943 L346.4168,335.8943 L346.4168,388.6973 L332.5388,388.6973 L332.5388,311.3933 L346.5258,311.3933 L380.1348,364.0853 L380.3528,364.0853 L380.3528,311.3933 L394.2308,311.3933 L394.2308,388.6973 L380.1348,388.6973 Z" id="Fill-4" fill="#FFFFFF" sketch:type="MSShapeGroup"></path>
                <path d="M380.1348,388.6973 L346.6328,335.8943 L346.4168,335.8943 L346.4168,388.6973 L332.5388,388.6973 L332.5388,311.3933 L346.5258,311.3933 L380.1348,364.0853 L380.3528,364.0853 L380.3528,311.3933 L394.2308,311.3933 L394.2308,388.6973 L380.1348,388.6973 L380.1348,388.6973 Z" id="Stroke-6" stroke="#FFFFFF" sketch:type="MSShapeGroup"></path>
                <path d="M436.3066,389.8887 C422.1036,389.8887 409.0936,383.9247 405.0816,370.8067 L418.0916,365.7097 C421.0196,373.1927 428.0656,377.4207 436.7406,377.4207 C444.5466,377.4207 451.9176,374.3847 451.9176,367.2287 C451.9176,349.2307 409.7446,362.8917 409.7446,333.0757 C409.7446,318.5487 421.7796,310.0917 436.7406,310.0917 C449.6416,310.0917 461.3506,315.2957 464.8206,326.5717 L452.3516,331.4507 C449.3166,324.9467 443.6786,322.2347 436.1986,322.2347 C429.9106,322.2347 423.8386,325.5947 423.8386,332.5347 C423.8386,337.9547 429.0416,339.9077 435.1136,341.5337 C447.5816,344.8937 466.0136,345.7627 466.0136,366.2537 C466.0136,380.4567 453.3276,389.8887 436.3066,389.8887" id="Fill-8" fill="#FFFFFF" sketch:type="MSShapeGroup"></path>
                <path d="M436.3066,389.8887 C422.1036,389.8887 409.0936,383.9247 405.0816,370.8067 L418.0916,365.7097 C421.0196,373.1927 428.0656,377.4207 436.7406,377.4207 C444.5466,377.4207 451.9176,374.3847 451.9176,367.2287 C451.9176,349.2307 409.7446,362.8917 409.7446,333.0757 C409.7446,318.5487 421.7796,310.0917 436.7406,310.0917 C449.6416,310.0917 461.3506,315.2957 464.8206,326.5717 L452.3516,331.4507 C449.3166,324.9467 443.6786,322.2347 436.1986,322.2347 C429.9106,322.2347 423.8386,325.5947 423.8386,332.5347 C423.8386,337.9547 429.0416,339.9077 435.1136,341.5337 C447.5816,344.8937 466.0136,345.7627 466.0136,366.2537 C466.0136,380.4567 453.3276,389.8887 436.3066,389.8887 L436.3066,389.8887 Z" id="Stroke-10" stroke="#FFFFFF" sketch:type="MSShapeGroup"></path>
                <path d="M512.1006,355.3184 L493.8856,355.3184 L493.8856,376.4614 L511.9926,376.4614 C519.6906,376.4614 524.5696,372.6674 524.5696,365.6194 C524.5696,358.5724 520.1226,355.3184 512.1006,355.3184 M510.2566,323.6604 L493.8856,323.6604 L493.8856,343.1754 L510.9076,343.1754 C518.1716,343.1754 522.4006,339.4914 522.4006,333.2014 C522.4006,326.4794 517.5216,323.6604 510.2566,323.6604 M514.4856,388.7124 L479.4666,388.7124 L479.4666,311.4094 L512.6426,311.4094 C527.6036,311.4094 536.4956,318.0224 536.4956,331.3584 C536.4956,338.2974 533.4586,344.0444 525.5436,347.7304 L525.6526,347.8384 C534.5416,350.2234 538.8796,357.8124 538.8796,366.4874 C538.8796,381.0134 527.2796,388.7124 514.4856,388.7124" id="Fill-12" fill="#FFFFFF" sketch:type="MSShapeGroup"></path>
                <path d="M512.1006,355.3184 L493.8856,355.3184 L493.8856,376.4614 L511.9926,376.4614 C519.6906,376.4614 524.5696,372.6674 524.5696,365.6194 C524.5696,358.5724 520.1226,355.3184 512.1006,355.3184 L512.1006,355.3184 Z M510.2566,323.6604 L493.8856,323.6604 L493.8856,343.1754 L510.9076,343.1754 C518.1716,343.1754 522.4006,339.4914 522.4006,333.2014 C522.4006,326.4794 517.5216,323.6604 510.2566,323.6604 L510.2566,323.6604 Z M514.4856,388.7124 L479.4666,388.7124 L479.4666,311.4094 L512.6426,311.4094 C527.6036,311.4094 536.4956,318.0224 536.4956,331.3584 C536.4956,338.2974 533.4586,344.0444 525.5436,347.7304 L525.6526,347.8384 C534.5416,350.2234 538.8796,357.8124 538.8796,366.4874 C538.8796,381.0134 527.2796,388.7124 514.4856,388.7124 L514.4856,388.7124 Z" id="Stroke-14" stroke="#FFFFFF" sketch:type="MSShapeGroup"></path>
                <path d="M584.9805,353.0176 C584.9805,345.4296 579.6675,342.3936 574.2465,342.3936 C568.6085,342.3936 562.5375,345.4296 562.5375,353.7766 L562.5375,354.5356 L584.9805,354.5356 L584.9805,353.0176 Z M574.6795,389.0126 C561.0185,389.0126 548.7685,381.5326 548.7685,366.3536 L548.7685,355.5116 C548.7685,339.8986 560.4775,331.2256 574.2465,331.2256 C586.2815,331.2256 598.2085,338.2736 598.2085,353.0176 L598.2085,363.7516 L562.5375,363.7516 L562.5375,366.7886 C562.5375,373.8336 568.2845,377.9546 575.3305,377.9546 C579.7755,377.9546 584.4375,375.0276 587.3655,370.7986 L598.2085,375.5696 C593.1115,384.5686 584.4375,389.0126 574.6795,389.0126 L574.6795,389.0126 Z" id="Fill-16" fill="#FFFFFF" sketch:type="MSShapeGroup"></path>
                <path d="M584.9805,353.0176 C584.9805,345.4296 579.6675,342.3936 574.2465,342.3936 C568.6085,342.3936 562.5375,345.4296 562.5375,353.7766 L562.5375,354.5356 L584.9805,354.5356 L584.9805,353.0176 L584.9805,353.0176 Z M574.6795,389.0126 C561.0185,389.0126 548.7685,381.5326 548.7685,366.3536 L548.7685,355.5116 C548.7685,339.8986 560.4775,331.2256 574.2465,331.2256 C586.2815,331.2256 598.2085,338.2736 598.2085,353.0176 L598.2085,363.7516 L562.5375,363.7516 L562.5375,366.7886 C562.5375,373.8336 568.2845,377.9546 575.3305,377.9546 C579.7755,377.9546 584.4375,375.0276 587.3655,370.7986 L598.2085,375.5696 C593.1115,384.5686 584.4375,389.0126 574.6795,389.0126 L574.6795,389.0126 Z" id="Stroke-18" stroke="#FFFFFF" sketch:type="MSShapeGroup"></path>
                <path d="M622.5762,389.4707 C609.4572,389.4707 609.1332,378.8467 609.1332,373.8597 L609.1332,311.4087 L622.3602,311.4087 L622.3602,373.7507 C622.3602,376.2447 623.5532,378.3047 627.1302,378.3047 C629.5142,378.3047 630.8152,378.0877 633.2012,377.8697 L633.2012,387.9527 C630.3832,388.7117 626.0452,389.4707 622.5762,389.4707" id="Fill-20" fill="#FFFFFF" sketch:type="MSShapeGroup"></path>
                <path d="M622.5762,389.4707 C609.4572,389.4707 609.1332,378.8467 609.1332,373.8597 L609.1332,311.4087 L622.3602,311.4087 L622.3602,373.7507 C622.3602,376.2447 623.5532,378.3047 627.1302,378.3047 C629.5142,378.3047 630.8152,378.0877 633.2012,377.8697 L633.2012,387.9527 C630.3832,388.7117 626.0452,389.4707 622.5762,389.4707 L622.5762,389.4707 Z" id="Stroke-22" stroke="#FFFFFF" sketch:type="MSShapeGroup"></path>
                <path d="M660.2451,343.5 L660.2451,388.712 L647.1261,388.712 L647.1261,343.5 L639.2111,343.5 L639.2111,333.201 L647.1261,333.201 L647.1261,326.046 C647.1261,315.421 652.5471,310.108 663.1731,310.108 C665.3411,310.108 667.6171,310.435 669.7851,310.65 L669.7851,321.709 C667.9431,321.493 666.6411,321.383 664.7981,321.383 C662.1961,321.383 660.2451,322.359 660.2451,325.613 L660.2451,333.201 L669.7851,333.201 L669.7851,343.5 L660.2451,343.5 Z" id="Fill-24" fill="#FFFFFF" sketch:type="MSShapeGroup"></path>
                <path d="M660.2451,343.5 L660.2451,388.712 L647.1261,388.712 L647.1261,343.5 L639.2111,343.5 L639.2111,333.201 L647.1261,333.201 L647.1261,326.046 C647.1261,315.421 652.5471,310.108 663.1731,310.108 C665.3411,310.108 667.6171,310.435 669.7851,310.65 L669.7851,321.709 C667.9431,321.493 666.6411,321.383 664.7981,321.383 C662.1961,321.383 660.2451,322.359 660.2451,325.613 L660.2451,333.201 L669.7851,333.201 L669.7851,343.5 L660.2451,343.5 L660.2451,343.5 Z" id="Stroke-26" stroke="#FFFFFF" sketch:type="MSShapeGroup"></path>
                <path d="M712.1035,365.5107 L699.0925,365.5107 C693.4555,365.5107 689.7685,367.4617 689.7685,372.3407 C689.7685,377.0037 693.5635,379.3887 699.7435,379.3887 C710.3695,379.3887 712.1035,374.1857 712.1035,368.2207 L712.1035,365.5107 Z M712.9705,388.7117 C712.7535,387.8457 712.5365,384.4847 712.4285,383.6167 L712.2115,383.6167 C707.3325,388.7117 703.3215,389.7967 696.1655,389.7967 C684.6735,389.7967 676.8675,383.5087 676.8675,372.9907 C676.8675,362.2567 686.6245,355.8617 697.3575,355.8617 L712.1035,355.8617 L712.1035,350.7657 C712.1035,344.9107 708.2005,342.4167 701.4775,342.4167 C695.7325,342.4167 691.5035,344.3697 691.5035,347.9467 L691.5035,349.8977 L679.5775,349.8977 L679.5775,348.3787 C679.5775,336.2377 691.1775,332.1167 701.5855,332.1167 C713.9465,332.1167 725.3305,336.2377 725.3305,349.7897 L725.3305,376.7867 C725.3305,379.2807 725.6565,387.5197 726.3065,388.7117 L712.9705,388.7117 Z" id="Fill-28" fill="#FFFFFF" sketch:type="MSShapeGroup"></path>
                <path d="M712.1035,365.5107 L699.0925,365.5107 C693.4555,365.5107 689.7685,367.4617 689.7685,372.3407 C689.7685,377.0037 693.5635,379.3887 699.7435,379.3887 C710.3695,379.3887 712.1035,374.1857 712.1035,368.2207 L712.1035,365.5107 L712.1035,365.5107 Z M712.9705,388.7117 C712.7535,387.8457 712.5365,384.4847 712.4285,383.6167 L712.2115,383.6167 C707.3325,388.7117 703.3215,389.7967 696.1655,389.7967 C684.6735,389.7967 676.8675,383.5087 676.8675,372.9907 C676.8675,362.2567 686.6245,355.8617 697.3575,355.8617 L712.1035,355.8617 L712.1035,350.7657 C712.1035,344.9107 708.2005,342.4167 701.4775,342.4167 C695.7325,342.4167 691.5035,344.3697 691.5035,347.9467 L691.5035,349.8977 L679.5775,349.8977 L679.5775,348.3787 C679.5775,336.2377 691.1775,332.1167 701.5855,332.1167 C713.9465,332.1167 725.3305,336.2377 725.3305,349.7897 L725.3305,376.7867 C725.3305,379.2807 725.6565,387.5197 726.3065,388.7117 L712.9705,388.7117 L712.9705,388.7117 Z" id="Stroke-30" stroke="#FFFFFF" sketch:type="MSShapeGroup"></path>
                <path d="M760.5781,390.9053 C750.6041,390.9053 741.2791,388.3033 735.7501,380.1713 L745.0751,373.1253 C748.5451,377.6773 754.0741,380.3883 760.3621,380.3883 C765.7831,380.3883 771.3121,378.5463 771.3121,373.5583 C771.3121,369.2203 768.3851,368.2463 760.9041,366.9453 L753.6401,365.6423 C744.5311,364.0163 738.4611,359.5723 738.4611,351.2233 C738.4611,338.4303 748.6511,333.0093 760.4701,333.0093 C770.4441,333.0093 777.6001,335.5023 782.2631,342.1163 L772.7221,348.6203 C769.4681,344.8263 765.7831,343.1993 760.3621,343.1993 C755.1571,343.1993 751.3621,345.1523 751.3621,349.3793 C751.3621,353.2833 756.1341,353.8253 761.8791,354.9103 L770.2271,356.5353 C779.6611,358.3783 785.0811,363.6913 785.0811,372.0403 C785.0811,384.8333 771.9631,390.9053 760.5781,390.9053" id="Fill-32" fill="#FFFFFF" sketch:type="MSShapeGroup"></path>
                <path d="M760.5781,390.9053 C750.6041,390.9053 741.2791,388.3033 735.7501,380.1713 L745.0751,373.1253 C748.5451,377.6773 754.0741,380.3883 760.3621,380.3883 C765.7831,380.3883 771.3121,378.5463 771.3121,373.5583 C771.3121,369.2203 768.3851,368.2463 760.9041,366.9453 L753.6401,365.6423 C744.5311,364.0163 738.4611,359.5723 738.4611,351.2233 C738.4611,338.4303 748.6511,333.0093 760.4701,333.0093 C770.4441,333.0093 777.6001,335.5023 782.2631,342.1163 L772.7221,348.6203 C769.4681,344.8263 765.7831,343.1993 760.3621,343.1993 C755.1571,343.1993 751.3621,345.1523 751.3621,349.3793 C751.3621,353.2833 756.1341,353.8253 761.8791,354.9103 L770.2271,356.5353 C779.6611,358.3783 785.0811,363.6913 785.0811,372.0403 C785.0811,384.8333 771.9631,390.9053 760.5781,390.9053 L760.5781,390.9053 Z" id="Stroke-34" stroke="#FFFFFF" sketch:type="MSShapeGroup"></path>
                <path d="M814.8789,389.4824 C806.3129,389.4824 799.3739,385.5794 799.3739,375.7114 L799.3739,343.8364 L791.8939,343.8364 L791.8939,333.3204 L799.3739,333.3204 L799.3739,316.5164 L812.6019,316.5164 L812.6019,333.3204 L824.6369,333.3204 L824.6369,343.8364 L812.6019,343.8364 L812.6019,372.5684 C812.6019,376.6884 814.7699,377.8824 817.8049,377.8824 C820.5169,377.8824 822.0329,377.7724 824.6369,377.3384 L824.6369,388.6154 C821.8169,389.1574 816.3959,389.4824 814.8789,389.4824" id="Fill-36" fill="#FFFFFF" sketch:type="MSShapeGroup"></path>
                <path d="M814.8789,389.4824 C806.3129,389.4824 799.3739,385.5794 799.3739,375.7114 L799.3739,343.8364 L791.8939,343.8364 L791.8939,333.3204 L799.3739,333.3204 L799.3739,316.5164 L812.6019,316.5164 L812.6019,333.3204 L824.6369,333.3204 L824.6369,343.8364 L812.6019,343.8364 L812.6019,372.5684 C812.6019,376.6884 814.7699,377.8824 817.8049,377.8824 C820.5169,377.8824 822.0329,377.7724 824.6369,377.3384 L824.6369,388.6154 C821.8169,389.1574 816.3959,389.4824 814.8789,389.4824 L814.8789,389.4824 Z" id="Stroke-38" stroke="#FFFFFF" sketch:type="MSShapeGroup"></path>
                <path d="M193.2891,286 L212.0001,286 L212.0001,271 L192.0981,271 C188.2151,271 175.1151,269.924 175.1151,286.904 L175.0241,405.69 C175.0741,423.393 190.8121,422 192.9081,422 L212.0001,422 L212.0001,407 L190.0001,407 L190.0001,288.77 C190.0001,285.548 193.2891,286 193.2891,286" id="Fill-40" fill="#FFFFFF" sketch:type="MSShapeGroup"></path>
                <path d="M277.9961,286 L260.0001,286 L260.0001,271 L279.1881,271 C283.0721,271 296.1711,269.924 296.1711,286.904 L296.2621,405.691 C296.2111,423.393 280.4731,422 278.3771,422 L260.0001,422 L260.0001,407 L281.0001,407 L281.0001,288.77 C281.0001,285.548 277.9961,286 277.9961,286" id="Fill-42" fill="#68AEF6" sketch:type="MSShapeGroup"></path>
                <mask id="mask-2" sketch:name="Clip 45" fill="white">
                    <use xlink:href="#path-1"></use>
                </mask>
                <g id="Clip-45"></g>
                <path d="M250,301 L221,301 L221,292 L250,292 L250,301 Z" id="Fill-44" fill="#68AEF6" sketch:type="MSShapeGroup" mask="url(#mask-2)"></path>
            </g>
        </g>
    </g>
</svg>