<?xml version="1.0" encoding="UTF-8" standalone="no"?>
<svg width="651px" height="153px" viewBox="0 0 651 153" version="1.1" xmlns="http://www.w3.org/2000/svg" xmlns:xlink="http://www.w3.org/1999/xlink" xmlns:sketch="http://www.bohemiancoding.com/sketch/ns">
    <!-- Generator: Sketch 3.0.2 (7799) - http://www.bohemiancoding.com/sketch -->
    <title>nsbelfast-brand-dark</title>
    <description>Created with Sketch.</description>
    <defs></defs>
    <g id="Page-1" stroke="none" stroke-width="1" fill="none" fill-rule="evenodd" sketch:type="MSPage">
        <g id="nsbelfast-brand-dark" sketch:type="MSLayerGroup" transform="translate(0.000000, -225.000000)">
            <circle id="Oval" fill="#68AEF5" sketch:type="MSShapeGroup" cx="60.848" cy="347.848" r="9.848"></circle>
            <path d="M205.134,343.697 L171.632,290.894 L171.416,290.894 L171.416,343.697 L157.539,343.697 L157.539,266.393 L171.525,266.393 L205.134,319.084 L205.351,319.084 L205.351,266.393 L219.229,266.393 L219.229,343.697 L205.134,343.697 L205.134,343.697 Z" id="Shape" stroke="#FFFFFF" fill="#FFFFFF" sketch:type="MSShapeGroup"></path>
            <path d="M261.306,344.889 C247.102,344.889 234.092,338.925 230.081,325.807 L243.091,320.71 C246.019,328.192 253.065,332.421 261.739,332.421 C269.546,332.421 276.917,329.385 276.917,322.229 C276.917,304.231 234.742,317.892 234.742,288.077 C234.742,273.55 246.777,265.093 261.739,265.093 C274.64,265.093 286.349,270.297 289.819,281.572 L277.351,286.451 C274.316,279.947 268.678,277.235 261.198,277.235 C254.909,277.235 248.839,280.595 248.839,287.535 C248.839,292.956 254.042,294.908 260.113,296.534 C272.581,299.894 291.013,300.763 291.013,321.255 C291.013,335.457 278.327,344.889 261.306,344.889 L261.306,344.889 Z" id="Shape" stroke="#FFFFFF" fill="#FFFFFF" sketch:type="MSShapeGroup"></path>
            <path d="M339.484,343.712 L304.465,343.712 L304.465,266.409 L337.641,266.409 C352.602,266.409 361.494,273.022 361.494,286.358 C361.494,293.296 358.458,299.044 350.543,302.73 L350.651,302.837 C359.541,305.223 363.879,312.812 363.879,321.486 C363.879,336.014 352.278,343.712 339.484,343.712 L339.484,343.712 Z M335.256,278.66 L318.885,278.66 L318.885,298.176 L335.906,298.176 C343.171,298.176 347.399,294.491 347.399,288.201 C347.399,281.479 342.521,278.66 335.256,278.66 L335.256,278.66 Z M337.1,310.318 L318.885,310.318 L318.885,331.461 L336.991,331.461 C344.689,331.461 349.568,327.667 349.568,320.619 C349.568,313.572 345.122,310.318 337.1,310.318 L337.1,310.318 Z" id="Shape" stroke="#FFFFFF" fill="#FFFFFF" sketch:type="MSShapeGroup"></path>
            <path d="M399.679,344.013 C386.018,344.013 373.768,336.533 373.768,321.354 L373.768,310.512 C373.768,294.899 385.477,286.226 399.246,286.226 C411.281,286.226 423.208,293.274 423.208,308.018 L423.208,318.752 L387.537,318.752 L387.537,321.788 C387.537,328.834 393.284,332.954 400.33,332.954 C404.775,332.954 409.437,330.027 412.365,325.799 L423.208,330.57 C418.11,339.568 409.437,344.013 399.679,344.013 L399.679,344.013 Z M409.979,308.018 C409.979,300.43 404.666,297.394 399.245,297.394 C393.607,297.394 387.536,300.43 387.536,308.777 L387.536,309.536 L409.979,309.536 L409.979,308.018 L409.979,308.018 Z" id="Shape" stroke="#FFFFFF" fill="#FFFFFF" sketch:type="MSShapeGroup"></path>
            <path d="M447.575,344.471 C434.456,344.471 434.132,333.847 434.132,328.86 L434.132,266.41 L447.36,266.41 L447.36,328.752 C447.36,331.246 448.552,333.306 452.13,333.306 C454.515,333.306 455.816,333.089 458.201,332.871 L458.201,342.954 C455.382,343.712 451.044,344.471 447.575,344.471 L447.575,344.471 Z" id="Shape" stroke="#FFFFFF" fill="#FFFFFF" sketch:type="MSShapeGroup"></path>
            <path d="M485.244,298.5 L485.244,343.712 L472.125,343.712 L472.125,298.5 L464.21,298.5 L464.21,288.201 L472.125,288.201 L472.125,281.046 C472.125,270.421 477.546,265.108 488.172,265.108 C490.34,265.108 492.616,265.434 494.784,265.65 L494.784,276.709 C492.942,276.493 491.64,276.383 489.797,276.383 C487.195,276.383 485.244,277.36 485.244,280.613 L485.244,288.201 L494.784,288.201 L494.784,298.5 L485.244,298.5 L485.244,298.5 Z" id="Shape" stroke="#FFFFFF" fill="#FFFFFF" sketch:type="MSShapeGroup"></path>
            <path d="M537.97,343.712 C537.753,342.846 537.535,339.484 537.428,338.617 L537.211,338.617 C532.332,343.712 528.32,344.797 521.164,344.797 C509.673,344.797 501.866,338.509 501.866,327.991 C501.866,317.257 511.624,310.861 522.356,310.861 L537.102,310.861 L537.102,305.765 C537.102,299.911 533.199,297.416 526.476,297.416 C520.731,297.416 516.502,299.369 516.502,302.945 L516.502,304.896 L504.575,304.896 L504.575,303.377 C504.575,291.235 516.176,287.115 526.584,287.115 C538.944,287.115 550.328,291.235 550.328,304.788 L550.328,331.785 C550.328,334.278 550.654,342.517 551.305,343.71 L537.97,343.71 L537.97,343.712 Z M537.103,320.511 L524.092,320.511 C518.454,320.511 514.768,322.462 514.768,327.341 C514.768,332.004 518.563,334.389 524.743,334.389 C535.369,334.389 537.103,329.186 537.103,323.221 L537.103,320.511 L537.103,320.511 Z" id="Shape" stroke="#FFFFFF" fill="#FFFFFF" sketch:type="MSShapeGroup"></path>
            <path d="M585.577,345.905 C575.603,345.905 566.278,343.303 560.749,335.171 L570.074,328.125 C573.544,332.678 579.073,335.389 585.361,335.389 C590.782,335.389 596.311,333.546 596.311,328.559 C596.311,324.221 593.383,323.247 585.903,321.946 L578.638,320.643 C569.53,319.017 563.459,314.573 563.459,306.224 C563.459,293.431 573.649,288.009 585.468,288.009 C595.443,288.009 602.599,290.502 607.261,297.116 L597.72,303.62 C594.466,299.826 590.782,298.199 585.361,298.199 C580.156,298.199 576.361,300.152 576.361,304.379 C576.361,308.283 581.132,308.825 586.878,309.91 L595.227,311.535 C604.661,313.378 610.081,318.691 610.081,327.04 C610.08,339.833 596.962,345.905 585.577,345.905 L585.577,345.905 Z" id="Shape" stroke="#FFFFFF" fill="#FFFFFF" sketch:type="MSShapeGroup"></path>
            <path d="M639.878,344.482 C631.312,344.482 624.373,340.579 624.373,330.711 L624.373,298.836 L616.893,298.836 L616.893,288.32 L624.373,288.32 L624.373,271.516 L637.601,271.516 L637.601,288.32 L649.636,288.32 L649.636,298.837 L637.601,298.837 L637.601,327.568 C637.601,331.688 639.769,332.882 642.804,332.882 C645.516,332.882 647.033,332.772 649.636,332.338 L649.636,343.614 C646.816,344.157 641.395,344.482 639.878,344.482 L639.878,344.482 Z" id="Shape" stroke="#FFFFFF" fill="#FFFFFF" sketch:type="MSShapeGroup"></path>
            <path d="M18.289,241 L37,241 L37,226 L17.097,226 C13.214,226 0.115,224.924 0.115,241.904 L0.024,360.69 C0.074,378.392 15.813,377 17.908,377 L37,377 L37,362 L15,362 L15,243.77 C15,240.548 18.289,241 18.289,241 L18.289,241 Z" id="Shape" fill="#FFFFFF" sketch:type="MSShapeGroup"></path>
            <path d="M102.996,240.597 L84.72,240.597 L84.72,225.649 L104.187,225.649 C108.07,225.649 121.169,224.749 121.169,241.729 L121.26,360.5 C121.21,378.202 105.471,376.793 103.376,376.793 L84.72,376.793 L84.72,361.845 L106.312,361.845 L106.312,243.77 C106.312,240.548 102.996,240.597 102.996,240.597 L102.996,240.597 Z" id="Shape" fill="#68AEF5" sketch:type="MSShapeGroup"></path>
            <rect id="Rectangle-path" fill="#68AEF5" sketch:type="MSShapeGroup" x="46" y="247" width="29" height="9"></rect>
        </g>
    </g>
</svg>