<?xml version="1.0" encoding="utf-8"?>
<!-- Generator: Adobe Illustrator 16.0.0, SVG Export Plug-In . SVG Version: 6.00 Build 0)  -->
<!DOCTYPE svg PUBLIC "-//W3C//DTD SVG 1.1//EN" "http://www.w3.org/Graphics/SVG/1.1/DTD/svg11.dtd">
<svg version="1.1" id="Layer_1" xmlns="http://www.w3.org/2000/svg" xmlns:xlink="http://www.w3.org/1999/xlink" x="0px" y="0px"
	 width="1000px" height="700px" viewBox="0 0 1000 700" enable-background="new 0 0 1000 700" xml:space="preserve">
<rect x="47.5" y="46.5" fill="#FFFFFF" width="906" height="607"/>
<circle fill="#68AEF5" cx="235.534" cy="393.086" r="9.848"/>
<path fill="#3E6687" stroke="#3E6687" stroke-miterlimit="10" d="M380.134,388.697l-33.502-52.803h-0.216v52.803h-13.877v-77.304
	h13.986l33.609,52.691h0.217v-52.691h13.878v77.304H380.134z"/>
<path fill="#3E6687" stroke="#3E6687" stroke-miterlimit="10" d="M436.306,389.889c-14.204,0-27.214-5.964-31.225-19.082
	l13.01-5.097c2.928,7.482,9.974,11.711,18.648,11.711c7.807,0,15.178-3.036,15.178-10.192c0-17.998-42.175-4.337-42.175-34.152
	c0-14.527,12.035-22.984,26.997-22.984c12.901,0,24.61,5.204,28.08,16.479l-12.468,4.879c-3.035-6.504-8.673-9.216-16.153-9.216
	c-6.289,0-12.359,3.36-12.359,10.3c0,5.421,5.203,7.373,11.274,8.999c12.468,3.36,30.9,4.229,30.9,24.721
	C466.013,380.457,453.327,389.889,436.306,389.889z"/>
<path fill="#3E6687" stroke="#3E6687" stroke-miterlimit="10" d="M514.484,388.712h-35.019v-77.303h33.176
	c14.961,0,23.853,6.613,23.853,19.949c0,6.938-3.036,12.686-10.951,16.372l0.108,0.107c8.89,2.386,13.228,9.975,13.228,18.649
	C538.879,381.014,527.278,388.712,514.484,388.712z M510.256,323.66h-16.371v19.516h17.021c7.265,0,11.493-3.685,11.493-9.975
	C522.399,326.479,517.521,323.66,510.256,323.66z M512.1,355.318h-18.215v21.143h18.106c7.698,0,12.577-3.794,12.577-10.842
	C524.568,358.572,520.122,355.318,512.1,355.318z"/>
<path fill="#3E6687" stroke="#3E6687" stroke-miterlimit="10" d="M574.679,389.013c-13.661,0-25.911-7.48-25.911-22.659v-10.842
	c0-15.613,11.709-24.286,25.478-24.286c12.035,0,23.962,7.048,23.962,21.792v10.734h-35.671v3.036
	c0,7.046,5.747,11.166,12.793,11.166c4.445,0,9.107-2.927,12.035-7.155l10.843,4.771
	C593.11,384.568,584.437,389.013,574.679,389.013z M584.979,353.018c0-7.588-5.313-10.624-10.734-10.624
	c-5.638,0-11.709,3.036-11.709,11.383v0.759h22.443V353.018z"/>
<path fill="#3E6687" stroke="#3E6687" stroke-miterlimit="10" d="M622.575,389.471c-13.119,0-13.443-10.624-13.443-15.611v-62.45
	h13.228v62.342c0,2.494,1.192,4.554,4.77,4.554c2.385,0,3.686-0.217,6.071-0.435v10.083
	C630.382,388.712,626.044,389.471,622.575,389.471z"/>
<path fill="#3E6687" stroke="#3E6687" stroke-miterlimit="10" d="M660.244,343.5v45.212h-13.119V343.5h-7.915v-10.299h7.915v-7.155
	c0-10.625,5.421-15.938,16.047-15.938c2.168,0,4.444,0.326,6.612,0.542v11.059c-1.842-0.216-3.144-0.326-4.987-0.326
	c-2.602,0-4.553,0.977-4.553,4.23v7.588h9.54V343.5H660.244z"/>
<path fill="#3E6687" stroke="#3E6687" stroke-miterlimit="10" d="M712.97,388.712c-0.217-0.866-0.435-4.228-0.542-5.095h-0.217
	c-4.879,5.095-8.891,6.18-16.047,6.18c-11.491,0-19.298-6.288-19.298-16.806c0-10.734,9.758-17.13,20.49-17.13h14.746v-5.096
	c0-5.854-3.903-8.349-10.626-8.349c-5.745,0-9.974,1.953-9.974,5.529v1.951h-11.927v-1.519c0-12.142,11.601-16.262,22.009-16.262
	c12.36,0,23.744,4.12,23.744,17.673v26.997c0,2.493,0.326,10.732,0.977,11.925H712.97z M712.103,365.511h-13.011
	c-5.638,0-9.324,1.951-9.324,6.83c0,4.663,3.795,7.048,9.975,7.048c10.626,0,12.36-5.203,12.36-11.168V365.511z"/>
<path fill="#3E6687" stroke="#3E6687" stroke-miterlimit="10" d="M760.577,390.905c-9.974,0-19.299-2.602-24.828-10.734l9.325-7.046
	c3.47,4.553,8.999,7.264,15.287,7.264c5.421,0,10.95-1.843,10.95-6.83c0-4.338-2.928-5.312-10.408-6.613l-7.265-1.303
	c-9.108-1.626-15.179-6.07-15.179-14.419c0-12.793,10.19-18.215,22.009-18.215c9.975,0,17.131,2.493,21.793,9.107l-9.541,6.504
	c-3.254-3.794-6.938-5.421-12.359-5.421c-5.205,0-9,1.953-9,6.18c0,3.904,4.771,4.446,10.517,5.531l8.349,1.625
	c9.434,1.843,14.854,7.156,14.854,15.505C785.08,384.833,771.962,390.905,760.577,390.905z"/>
<path fill="#3E6687" stroke="#3E6687" stroke-miterlimit="10" d="M814.878,389.482c-8.566,0-15.505-3.903-15.505-13.771v-31.875
	h-7.48V333.32h7.48v-16.804h13.228v16.804h12.035v10.517h-12.035v28.731c0,4.12,2.168,5.314,5.203,5.314
	c2.712,0,4.229-0.11,6.832-0.544v11.276C821.816,389.157,816.395,389.482,814.878,389.482z"/>
<path fill="#3E6687" d="M193.289,286H212v-15h-19.903c-3.883,0-16.982-1.076-16.982,15.904l-0.091,118.786
	c0.05,17.702,15.789,16.31,17.884,16.31H212v-15h-22V288.77C190,285.548,193.289,286,193.289,286z"/>
<path fill="#68AEF5" d="M277.996,285.597H259.72v-14.948h19.467c3.883,0,16.982-0.9,16.982,16.08l0.091,118.771
	c-0.05,17.702-15.789,16.293-17.884,16.293H259.72v-14.948h21.592V288.77C281.312,285.548,277.996,285.597,277.996,285.597z"/>
<rect x="221" y="292" fill="#68AEF5" width="29" height="9"/>
<rect x="1099.5" y="44.5" display="none" fill="#FFFFFF" width="906" height="607"/>
</svg>
