<?xml version="1.0" encoding="UTF-8" standalone="no"?>
<svg width="105px" height="105px" viewBox="0 0 105 105" version="1.1" xmlns="http://www.w3.org/2000/svg" xmlns:xlink="http://www.w3.org/1999/xlink" xmlns:sketch="http://www.bohemiancoding.com/sketch/ns">
    <!-- Generator: Sketch 3.0.1 (7597) - http://www.bohemiancoding.com/sketch -->
    <title>calendar_icon</title>
    <description>Created with Sketch.</description>
    <defs></defs>
    <g id="Page-1" stroke="none" stroke-width="1" fill="none" fill-rule="evenodd" sketch:type="MSPage">
        <g id="calendar_icon" sketch:type="MSArtboardGroup" fill="#4A4A4A">
            <g id="calendar" sketch:type="MSLayerGroup" transform="translate(20.000000, 17.000000)">
                <g id="Capa_1" sketch:type="MSShapeGroup">
                    <g id="Group">
                        <g id="Shape">
                            <path d="M52.4475542,7.25376661 L52.4475542,13.3382209 C52.4475542,16.324274 50.0198142,18.7445739 47.024582,18.7445739 L42.5055728,18.7445739 C39.5103406,18.7445739 37.0826006,16.324274 37.0826006,13.3382209 L37.0826006,7.2 L27.9173994,7.2 L27.9173994,13.3382209 C27.9173994,16.324274 25.4896594,18.7445739 22.4944272,18.7445739 L17.975418,18.7445739 C14.9801858,18.7445739 12.5524458,16.324274 12.5524458,13.3382209 L12.5524458,7.2545691 C5.53003096,7.8042725 0,13.6471783 0,20.7893101 L0,58.4114924 C-1.42988476e-15,65.9155457 6.10315789,72 13.6310836,72 L51.3689164,72 C58.8968421,72 65,65.9155457 65,58.4106899 L65,20.7893101 C65,13.6471783 59.469969,7.8042725 52.4475542,7.25376661 L52.4475542,7.25376661 Z M60.1851852,55.0058676 C60.1851852,61.2986897 55.0617229,66.4 48.7415749,66.4 L17.0608942,66.4 C10.7407462,66.4 5.61728395,61.2986897 5.61728395,55.0058676 L5.61728395,24.8 L60.1851852,24.8 L60.1851852,55.0058676 L60.1851852,55.0058676 Z"></path>
                            <g transform="translate(15.246914, 0.000000)">
                                <path d="M8.82716049,13.5002478 C8.82716049,15.3223772 7.43201904,16.8 5.71160152,16.8 L3.1155593,16.8 C1.39514177,16.8 3.1941329e-07,15.3223772 3.1941329e-07,13.5002478 L3.1941329e-07,3.29975217 C-0.000770476969,1.47762282 1.39360018,0 3.1147885,0 L5.71083072,0 C7.43124824,0 8.8263897,1.47762282 8.8263897,3.29975217 L8.8263897,13.5002478 L8.82716049,13.5002478 Z"></path>
                                <path d="M33.7037037,13.5002478 C33.7037037,15.3223772 32.3085623,16.8 30.5881447,16.8 L27.9921025,16.8 C26.271685,16.8 24.8765435,15.3223772 24.8765435,13.5002478 L24.8765435,3.29975217 C24.8757727,1.47762282 26.2709142,0 27.9921025,0 L30.5881447,0 C32.3085623,0 33.7037037,1.47762282 33.7037037,3.29975217 L33.7037037,13.5002478 L33.7037037,13.5002478 Z"></path>
                            </g>
                        </g>
                        <path d="M37.0090169,45.6 L43.1189044,39.5089121 C44.4747685,38.15722 44.4747685,35.9654612 43.1189044,34.6137691 C41.7630404,33.262077 39.564517,33.262077 38.208653,34.6137691 L32.0987654,40.704857 L25.9888779,34.6137691 C24.6330138,33.262077 22.4344904,33.262077 21.0786264,34.6137691 C19.7227624,35.9654612 19.7227624,38.15722 21.0786264,39.5089121 L27.188514,45.6 L21.0786264,51.6910879 C19.7227624,53.04278 19.7227624,55.2345388 21.0786264,56.5862309 C22.4344904,57.937923 24.6330138,57.937923 25.9888779,56.5862309 L32.0987654,50.495143 L38.208653,56.5862309 C39.564517,57.937923 41.7630404,57.937923 43.1189044,56.5862309 C44.4747685,55.2345388 44.4747685,53.04278 43.1189044,51.6910879 L37.0090169,45.6 L37.0090169,45.6 Z" id="Shape"></path>
                    </g>
                </g>
            </g>
        </g>
    </g>
</svg>