<?xml version="1.0" encoding="UTF-8" standalone="no"?>
<svg width="540px" height="180px" viewBox="0 0 540 180" version="1.1" xmlns="http://www.w3.org/2000/svg" xmlns:xlink="http://www.w3.org/1999/xlink" xmlns:sketch="http://www.bohemiancoding.com/sketch/ns">
    <!-- Generator: Sketch 3.0.1 (7597) - http://www.bohemiancoding.com/sketch -->
    <title>logo</title>
    <description>Created with Sketch.</description>
    <defs></defs>
    <g id="Page-1" stroke="none" stroke-width="1" fill="none" fill-rule="evenodd" sketch:type="MSPage">
        <g id="logo" sketch:type="MSArtboardGroup" fill="#FFFFFF">
            <path d="M502,149.594595 L516.711864,149.594595 L516.711864,30.4054054 L502,30.4054054 L502,20 L530,20 L530,160 L502,160 L502,149.594595 Z" id="]" sketch:type="MSShapeGroup"></path>
            <path d="M38,30.4054054 L23.2881356,30.4054054 L23.2881356,149.594595 L38,149.594595 L38,160 L10,160 L10,20 L38,20 L38,30.4054054 Z" id="[" sketch:type="MSShapeGroup"></path>
            <path d="M98.793,113.766 L98.997,113.766 L98.997,56.034 L109.095,56.034 L109.095,128.25 L96.345,128.25 L58.197,69.294 L57.993,69.294 L57.993,128.25 L47.895,128.25 L47.895,56.034 L61.053,56.034 L98.793,113.766 Z M162.543,69.396 C161.114993,67.4239901 159.177012,65.8090063 156.729,64.551 C154.280988,63.2929937 151.527015,62.664 148.467,62.664 C146.834992,62.664 145.186008,62.8849978 143.52,63.327 C141.853992,63.7690022 140.341007,64.4829951 138.981,65.469 C137.620993,66.4550049 136.516004,67.6789927 135.666,69.141 C134.815996,70.6030073 134.391,72.3539898 134.391,74.394 C134.391,76.3660099 134.781996,78.0149934 135.564,79.341 C136.346004,80.6670066 137.399993,81.7889954 138.726,82.707 C140.052007,83.6250046 141.615991,84.4069968 143.418,85.053 C145.220009,85.6990032 147.14099,86.3619966 149.181,87.042 C151.629012,87.7900037 154.110987,88.6399952 156.627,89.592 C159.143013,90.5440048 161.42099,91.8019922 163.461,93.366 C165.50101,94.9300078 167.166994,96.8849883 168.459,99.231 C169.751006,101.577012 170.397,104.551982 170.397,108.156 C170.397,111.896019 169.700007,115.142986 168.306,117.897 C166.911993,120.651014 165.059012,122.928991 162.747,124.731 C160.434988,126.533009 157.766015,127.875996 154.74,128.76 C151.713985,129.644004 148.603016,130.086 145.407,130.086 C140.850977,130.086 136.448021,129.202009 132.198,127.434 C127.947979,125.665991 124.429014,123.048017 121.641,119.58 L129.495,112.95 C131.195008,115.466013 133.472986,117.505992 136.329,119.07 C139.185014,120.634008 142.278983,121.416 145.611,121.416 C147.311009,121.416 149.010991,121.178002 150.711,120.702 C152.411008,120.225998 153.957993,119.478005 155.352,118.458 C156.746007,117.437995 157.884996,116.163008 158.769,114.633 C159.653004,113.102992 160.095,111.250011 160.095,109.074 C160.095,106.897989 159.636005,105.079007 158.718,103.617 C157.799995,102.154993 156.559008,100.914005 154.995,99.894 C153.430992,98.8739949 151.61201,98.0070036 149.538,97.293 C147.46399,96.5789964 145.271012,95.8480037 142.959,95.1 C140.646988,94.4199966 138.369011,93.5870049 136.125,92.601 C133.880989,91.6149951 131.875009,90.3570076 130.107,88.827 C128.338991,87.2969923 126.911005,85.4100112 125.823,83.166 C124.734995,80.9219888 124.191,78.1340167 124.191,74.802 C124.191,71.197982 124.921993,68.1040129 126.384,65.52 C127.846007,62.9359871 129.749988,60.7940085 132.096,59.094 C134.442012,57.3939915 137.093985,56.1530039 140.052,55.371 C143.010015,54.5889961 145.984985,54.198 148.977,54.198 C153.193021,54.198 157.136982,54.9459925 160.809,56.442 C164.481018,57.9380075 167.438989,59.9439874 169.683,62.46 L162.543,69.396 Z M184.677,56.034 L209.565,56.034 C212.285014,56.034 215.004986,56.3399969 217.725,56.952 C220.445014,57.5640031 222.875989,58.5839929 225.018,60.012 C227.160011,61.4400071 228.893993,63.3099884 230.22,65.622 C231.546007,67.9340116 232.209,70.8239827 232.209,74.292 C232.209,78.3040201 231.053012,81.6699864 228.741,84.39 C226.428988,87.1100136 223.369019,88.9799949 219.561,90 L219.561,90.204 C221.873012,90.4760014 224.01499,91.0709954 225.987,91.989 C227.95901,92.9070046 229.658993,94.1139925 231.087,95.61 C232.515007,97.1060075 233.619996,98.8739898 234.402,100.914 C235.184004,102.95401 235.575,105.231987 235.575,107.748 C235.575,111.216017 234.861007,114.241987 233.433,116.826 C232.004993,119.410013 230.067012,121.534992 227.619,123.201 C225.170988,124.867008 222.298016,126.124996 219,126.975 C215.701984,127.825004 212.183019,128.25 208.443,128.25 L184.677,128.25 L184.677,56.034 Z M194.775,86.532 L207.933,86.532 C209.83701,86.532 211.655991,86.3110022 213.39,85.869 C215.124009,85.4269978 216.636994,84.7470046 217.929,83.829 C219.221006,82.9109954 220.240996,81.755007 220.989,80.361 C221.737004,78.966993 222.111,77.2840099 222.111,75.312 C222.111,71.4359806 220.683014,68.6650083 217.827,66.999 C214.970986,65.3329917 211.129024,64.5 206.301,64.5 L194.775,64.5 L194.775,86.532 Z M194.775,119.682 L207.423,119.682 C209.531011,119.682 211.655989,119.495002 213.798,119.121 C215.940011,118.746998 217.877991,118.084005 219.612,117.132 C221.346009,116.179995 222.739995,114.905008 223.794,113.307 C224.848005,111.708992 225.375,109.686012 225.375,107.238 C225.375,102.953979 223.913015,99.8600095 220.989,97.956 C218.064985,96.0519905 213.849028,95.1 208.341,95.1 L194.775,95.1 L194.775,119.682 Z M294.735,103.668 L294.735,105.3 C294.735,105.844003 294.701,106.387997 294.633,106.932 L256.281,106.932 C256.349,108.97201 256.807996,110.892991 257.658,112.695 C258.508004,114.497009 259.646993,116.060993 261.075,117.387 C262.503007,118.713007 264.151991,119.749996 266.022,120.498 C267.892009,121.246004 269.880989,121.62 271.989,121.62 C275.253016,121.62 278.074988,120.906007 280.455,119.478 C282.835012,118.049993 284.704993,116.31601 286.065,114.276 L292.797,119.682 C290.212987,123.082017 287.170018,125.580992 283.668,127.179 C280.165982,128.777008 276.273021,129.576 271.989,129.576 C268.316982,129.576 264.917016,128.964006 261.789,127.74 C258.660984,126.515994 255.975011,124.799011 253.731,122.589 C251.486989,120.378989 249.719006,117.710016 248.427,114.582 C247.134994,111.453984 246.489,107.986019 246.489,104.178 C246.489,100.437981 247.117994,96.9870158 248.376,93.825 C249.634006,90.6629842 251.384989,87.9600112 253.629,85.716 C255.873011,83.4719888 258.524985,81.7210063 261.585,80.463 C264.645015,79.2049937 267.942982,78.576 271.479,78.576 C275.015018,78.576 278.227986,79.1539942 281.118,80.31 C284.008014,81.4660058 286.45599,83.1319891 288.462,85.308 C290.46801,87.4840109 292.014995,90.1189845 293.103,93.213 C294.191005,96.3070155 294.735,99.7919806 294.735,103.668 Z M285.045,99.792 C284.977,97.8879905 284.654003,96.1030083 284.076,94.437 C283.497997,92.7709917 282.648006,91.3260061 281.526,90.102 C280.403994,88.8779939 279.010008,87.9090036 277.344,87.195 C275.677992,86.4809964 273.723011,86.124 271.479,86.124 C269.43899,86.124 267.518009,86.4809964 265.716,87.195 C263.913991,87.9090036 262.350007,88.8779939 261.024,90.102 C259.697993,91.3260061 258.610004,92.7709917 257.76,94.437 C256.909996,96.1030083 256.417001,97.8879905 256.281,99.792 L285.045,99.792 Z M317.889,128.25 L308.301,128.25 L308.301,51.138 L317.889,51.138 L317.889,128.25 Z M357.363,87.756 L346.143,87.756 L346.143,128.25 L336.555,128.25 L336.555,87.756 L326.967,87.756 L326.967,79.902 L336.555,79.902 L336.555,69.804 C336.555,66.9479857 336.877997,64.3130121 337.524,61.899 C338.170003,59.4849879 339.223993,57.3940088 340.686,55.626 C342.148007,53.8579912 344.017989,52.4640051 346.296,51.444 C348.574011,50.4239949 351.344984,49.914 354.609,49.914 C356.921012,49.914 358.926991,50.1519976 360.627,50.628 L359.505,58.89 C358.756996,58.685999 358.009004,58.5160007 357.261,58.38 C356.512996,58.2439993 355.663005,58.176 354.711,58.176 C352.874991,58.176 351.396006,58.4989968 350.274,59.145 C349.151994,59.7910032 348.285003,60.6579946 347.673,61.746 C347.060997,62.8340054 346.653001,64.074993 346.449,65.469 C346.244999,66.863007 346.143,68.3079925 346.143,69.804 L346.143,79.902 L357.363,79.902 L357.363,87.756 Z M396.327,96.936 C396.327,93.331982 395.239011,90.6630087 393.063,88.929 C390.886989,87.1949913 387.997018,86.328 384.393,86.328 C381.672986,86.328 379.106012,86.8549947 376.692,87.909 C374.277988,88.9630053 372.255008,90.3059918 370.623,91.938 L365.523,85.818 C367.903012,83.5739888 370.809983,81.8060065 374.244,80.514 C377.678017,79.2219935 381.36698,78.576 385.311,78.576 C388.779017,78.576 391.787987,79.0689951 394.338,80.055 C396.888013,81.0410049 398.978992,82.3839915 400.611,84.084 C402.243008,85.7840085 403.466996,87.7899884 404.283,90.102 C405.099004,92.4140116 405.507,94.8959867 405.507,97.548 L405.507,118.662 C405.507,120.294008 405.557999,122.010991 405.66,123.813 C405.762001,125.615009 405.948999,127.093994 406.221,128.25 L397.551,128.25 C397.006997,125.937988 396.735,123.626012 396.735,121.314 L396.429,121.314 C394.660991,123.898013 392.434013,125.903993 389.748,127.332 C387.061987,128.760007 383.883018,129.474 380.211,129.474 C378.30699,129.474 376.31801,129.219003 374.244,128.709 C372.16999,128.198997 370.283009,127.366006 368.583,126.21 C366.882992,125.053994 365.472006,123.52401 364.35,121.62 C363.227994,119.71599 362.667,117.370014 362.667,114.582 C362.667,110.909982 363.65299,108.003011 365.625,105.861 C367.59701,103.718989 370.180984,102.087006 373.377,100.965 C376.573016,99.8429944 380.17698,99.1120017 384.189,98.772 C388.20102,98.4319983 392.24698,98.262 396.327,98.262 L396.327,96.936 Z M393.981,105.198 C391.600988,105.198 389.136013,105.299999 386.586,105.504 C384.035987,105.708001 381.72401,106.115997 379.65,106.728 C377.57599,107.340003 375.859007,108.257994 374.499,109.482 C373.138993,110.706006 372.459,112.33799 372.459,114.378 C372.459,115.806007 372.747997,116.995995 373.326,117.948 C373.904003,118.900005 374.668995,119.681997 375.621,120.294 C376.573005,120.906003 377.626994,121.330999 378.783,121.569 C379.939006,121.807001 381.128994,121.926 382.353,121.926 C386.841022,121.926 390.291988,120.583013 392.706,117.897 C395.120012,115.210987 396.327,111.82802 396.327,107.748 L396.327,105.198 L393.981,105.198 Z M447.633,92.142 C446.544995,90.3739912 445.01501,88.9290056 443.043,87.807 C441.07099,86.6849944 438.861012,86.124 436.413,86.124 C435.324995,86.124 434.237005,86.2429988 433.149,86.481 C432.060995,86.7190012 431.092004,87.0929974 430.242,87.603 C429.391996,88.1130026 428.712003,88.7589961 428.202,89.541 C427.691997,90.3230039 427.437,91.2919942 427.437,92.448 C427.437,94.4880102 428.354991,96.0009951 430.191,96.987 C432.027009,97.9730049 434.780982,98.8739959 438.453,99.69 C440.765012,100.234003 442.90699,100.879996 444.879,101.628 C446.85101,102.376004 448.567993,103.310994 450.03,104.433 C451.492007,105.555006 452.630996,106.897992 453.447,108.462 C454.263004,110.026008 454.671,111.861989 454.671,113.97 C454.671,116.826014 454.127005,119.23999 453.039,121.212 C451.950995,123.18401 450.506009,124.798994 448.704,126.057 C446.901991,127.315006 444.845012,128.215997 442.533,128.76 C440.220988,129.304003 437.841012,129.576 435.393,129.576 C431.720982,129.576 428.134018,128.862007 424.632,127.434 C421.129982,126.005993 418.223012,123.830015 415.911,120.906 L422.745,115.092 C424.037006,116.99601 425.821989,118.593994 428.1,119.886 C430.378011,121.178006 432.876986,121.824 435.597,121.824 C436.821006,121.824 437.993994,121.705001 439.116,121.467 C440.238006,121.228999 441.257995,120.838003 442.176,120.294 C443.094005,119.749997 443.824997,119.036004 444.369,118.152 C444.913003,117.267996 445.185,116.146007 445.185,114.786 C445.185,112.541989 444.114011,110.876005 441.972,109.788 C439.829989,108.699995 436.685021,107.680005 432.537,106.728 C430.904992,106.319998 429.256008,105.827003 427.59,105.249 C425.923992,104.670997 424.411007,103.872005 423.051,102.852 C421.690993,101.831995 420.586004,100.557008 419.736,99.027 C418.885996,97.4969923 418.461,95.6100112 418.461,93.366 C418.461,90.7819871 418.987995,88.5550093 420.042,86.685 C421.096005,84.8149906 422.472992,83.2850059 424.173,82.095 C425.873008,80.904994 427.810989,80.0210029 429.987,79.443 C432.163011,78.8649971 434.406988,78.576 436.719,78.576 C440.187017,78.576 443.535984,79.2559932 446.766,80.616 C449.996016,81.9760068 452.494991,83.9479871 454.263,86.532 L447.633,92.142 Z M490.473,87.756 L477.621,87.756 L477.621,112.95 C477.621,115.874015 478.164995,117.964994 479.253,119.223 C480.341005,120.481006 482.074988,121.11 484.455,121.11 C485.339004,121.11 486.290995,121.008001 487.311,120.804 C488.331005,120.599999 489.248996,120.294002 490.065,119.886 L490.371,127.74 C489.214994,128.148002 487.940007,128.470999 486.546,128.709 C485.151993,128.947001 483.707007,129.066 482.211,129.066 C477.654977,129.066 474.170012,127.808013 471.756,125.292 C469.341988,122.775987 468.135,119.002025 468.135,113.97 L468.135,87.756 L458.853,87.756 L458.853,79.902 L468.135,79.902 L468.135,66.03 L477.621,66.03 L477.621,79.902 L490.473,79.902 L490.473,87.756 Z" id="NSBelfast" sketch:type="MSShapeGroup"></path>
        </g>
    </g>
</svg>